<svg width="38" height="39" viewBox="0 0 38 39" fill="none" xmlns="http://www.w3.org/2000/svg">
<path d="M36.6218 23.3288L33.1042 20.5782C33.1488 20.154 33.1871 19.6581 33.1871 19.1335C33.1871 18.6088 33.1504 18.113 33.1042 17.6888L36.625 14.9365C37.2788 14.4199 37.4574 13.503 37.0412 12.7392L33.3832 6.41024C32.9925 5.69589 32.1362 5.32911 31.2672 5.64962L27.1165 7.31594C26.3208 6.74189 25.4868 6.25716 24.6242 5.86967L23.9927 1.46704C23.889 0.631456 23.1619 0 22.3025 0H14.9674C14.1079 0 13.3824 0.631456 13.2803 1.45426L12.6473 5.87289C11.8117 6.24923 10.9905 6.72761 10.1597 7.31915L5.99784 5.64805C5.21801 5.34667 4.28518 5.68468 3.8977 6.39589L0.234982 12.7328C-0.197126 13.4631 -0.0185571 14.4119 0.649599 14.9413L4.16723 17.692C4.1114 18.2293 4.08434 18.6966 4.08434 19.1351C4.08434 19.5736 4.11147 20.0408 4.16723 20.5798L0.646385 23.332C-0.00741991 23.8503 -0.184419 24.7672 0.231768 25.5294L3.88977 31.8583C4.28047 32.571 5.12877 32.941 6.00576 32.6189L10.1565 30.9526C10.9506 31.525 11.7845 32.0098 12.6473 32.3988L13.2787 36.7999C13.3823 37.6386 14.1079 38.2701 14.969 38.2701H22.304C23.1635 38.2701 23.8907 37.6386 23.9927 36.8158L24.6257 32.3988C25.4613 32.0209 26.2809 31.5441 27.1133 30.9509L31.2751 32.622C31.4761 32.7001 31.685 32.74 31.9003 32.74C32.5189 32.74 33.0882 32.402 33.3752 31.8758L37.0491 25.5134C37.4574 24.7671 37.2788 23.8503 36.6218 23.3288ZM18.6349 25.5134C15.1173 25.5134 12.2566 22.6527 12.2566 19.135C12.2566 15.6174 15.1173 12.7567 18.6349 12.7567C22.1525 12.7567 25.0132 15.6174 25.0132 19.135C25.0132 22.6527 22.1525 25.5134 18.6349 25.5134Z" fill="url(#paint0_linear_211_95)"/>
<defs>
<linearGradient id="paint0_linear_211_95" x1="0.000910025" y1="-0.000297286" x2="38.2578" y2="37.2517" gradientUnits="userSpaceOnUse">
<stop stop-color="#F5DC8D"/>
<stop offset="1" stop-color="#EEB60A"/>
</linearGradient>
</defs>
</svg>
