<svg width="90" height="56" viewBox="0 0 90 56" fill="none" xmlns="http://www.w3.org/2000/svg">
<path d="M88.6866 20.2614L84.62 14.1294C84.2289 13.5399 83.434 13.3789 82.8447 13.7698C82.2553 14.1607 82.0942 14.9556 82.4852 15.5452L86.2337 21.198H71.63C71.0179 21.198 70.5199 20.7 70.5199 20.0879V9.13392H77.0873C77.8048 9.13392 78.4698 9.49093 78.8662 10.0888L79.2898 10.7275C80.1884 12.1262 82.3634 10.6829 81.4249 9.31181L81.0011 8.67284C80.1287 7.35747 78.6655 6.57208 77.0871 6.57208H74.8946V4.05841C74.8946 1.86905 73.1134 0.0878601 70.924 0.0878601C68.7347 0.0878601 66.9535 1.86905 66.9535 4.05841V6.57208H66.2384C65.2106 6.57208 64.2445 6.97269 63.5186 7.70042C62.7926 8.42798 62.3939 9.39495 62.396 10.4227L62.4285 26.7177C60.4213 27.2977 58.7925 28.7537 57.9994 30.7199L57.995 30.7306V25.1414C57.995 22.8501 56.6448 20.762 54.5553 19.8218C52.4568 18.8775 46.581 17.4805 43.265 16.7319C42.8908 16.6473 42.5129 16.5783 42.1328 16.5222L38.1048 13.2507C35.804 11.3822 32.9047 10.3531 29.9408 10.3531H21.317C18.3306 10.3531 15.4144 11.396 13.1055 13.2896L9.39902 16.3571H3.57187C1.66816 16.3571 0.119355 17.9061 0.119355 19.8098V27.3988C0.119355 28.5419 0.606445 29.636 1.45564 30.4005L3.95209 32.6485C4.72359 33.3434 5.72045 33.7259 6.75879 33.7259H9.38971C9.66217 34.3404 10.0492 34.8931 10.5242 35.3564H3.84258C1.72389 35.3564 0 37.0801 0 39.199V44.4264C0 46.5453 1.72371 48.269 3.84258 48.269H6.32637C6.27645 48.5965 6.25043 48.9315 6.25043 49.2727C6.25043 52.9337 9.22887 55.9119 12.8897 55.9119C16.5505 55.9119 19.5289 52.9335 19.5289 49.2727C19.5289 48.9315 19.5029 48.5965 19.453 48.269H21.1147C21.0647 48.5965 21.0387 48.9315 21.0387 49.2727C21.0387 52.9337 24.0172 55.9119 27.678 55.9119C27.9812 55.9119 28.2865 55.8912 28.5857 55.8503C29.2866 55.7543 29.7768 55.1083 29.681 54.4076C29.585 53.7066 28.9397 53.216 28.2382 53.3123C28.054 53.3376 27.8655 53.3503 27.678 53.3503C25.4296 53.3503 23.6004 51.5211 23.6004 49.2727C23.6004 47.0243 25.4296 45.1949 27.678 45.1949C29.9264 45.1949 31.7556 47.0243 31.7556 49.2727C31.7556 49.7589 31.6712 50.2342 31.5046 50.6854C31.2595 51.3492 31.5991 52.0855 32.2627 52.3306C32.9265 52.5756 33.663 52.2362 33.9079 51.5724C34.1796 50.8363 34.3172 50.0625 34.3172 49.2727C34.3172 48.9315 34.2912 48.5965 34.2413 48.269H56.5938C57.3013 48.269 57.8747 47.6956 57.8747 46.9881C57.8747 46.2807 57.3013 45.7071 56.5938 45.7071H33.2747C32.0943 43.8607 30.0277 42.6331 27.6783 42.6331C25.329 42.6331 23.2624 43.8607 22.082 45.7071H18.4864C17.306 43.8607 15.2394 42.6331 12.89 42.6331C10.5407 42.6331 8.47406 43.8607 7.29369 45.7071H3.84258C3.13629 45.7071 2.56166 45.1325 2.56166 44.4264V39.199C2.56166 38.4927 3.13629 37.9181 3.84258 37.9181H87.4383V44.2701C87.4383 45.0625 86.9068 45.7073 86.2534 45.7073H77.2471C76.0667 43.8609 73.9999 42.6333 71.6507 42.6333C69.3014 42.6333 67.2346 43.8609 66.0542 45.7073H62.6813C61.9738 45.7073 61.4004 46.2807 61.4004 46.9882C61.4004 47.6956 61.9738 48.2692 62.6813 48.2692H65.0872C65.0373 48.5966 65.0113 48.9317 65.0113 49.2729C65.0113 52.9339 67.9897 55.9121 71.6507 55.9121C75.3115 55.9121 78.29 52.9337 78.29 49.2729C78.29 48.9317 78.264 48.5966 78.214 48.2692H86.2532C88.319 48.2692 89.9998 46.4753 89.9998 44.2703V24.6183C90 23.0635 89.546 21.5569 88.6866 20.2614ZM12.8897 45.1951C15.1381 45.1951 16.9673 47.0244 16.9673 49.2729C16.9673 51.5213 15.1381 53.3505 12.8897 53.3505C10.6413 53.3505 8.81209 51.5213 8.81209 49.2729C8.81209 47.0244 10.6413 45.1951 12.8897 45.1951ZM71.6507 53.3506C69.4023 53.3506 67.573 51.5215 67.573 49.273C67.573 47.0246 69.4023 45.1953 71.6507 45.1953C73.8991 45.1953 75.7283 47.0246 75.7283 49.273C75.7283 51.5213 73.8991 53.3506 71.6507 53.3506ZM87.4383 31.4049H84.8037C83.921 31.4049 83.2027 30.6866 83.2027 29.8039C83.2027 28.9211 83.921 28.2028 84.8037 28.2028H87.4383V31.4049ZM69.5155 4.05841C69.5155 3.28146 70.1476 2.64952 70.9244 2.64952C71.7012 2.64952 72.3333 3.28146 72.3333 4.05841V6.57208H69.5155V4.05841ZM60.3752 31.678C60.7737 30.6903 61.5099 29.9092 62.4342 29.4516L62.4459 35.3566H58.8913L60.3752 31.678ZM56.1291 35.3568H45.5157C45.9907 34.8934 46.3778 34.3408 46.6502 33.7262H55.0695C55.8726 33.7262 56.601 33.4005 57.1303 32.8748L56.1291 35.3568ZM39.1929 31.6128C39.1929 30.1398 40.3914 28.9413 41.8644 28.9413C43.3375 28.9413 44.5359 30.1398 44.5359 31.6128C44.5359 33.0859 43.3375 34.2843 41.8644 34.2843C40.3914 34.2843 39.1929 33.0859 39.1929 31.6128ZM55.2008 23.935C55.3511 24.3128 55.4335 24.7206 55.4335 25.1413V25.8242H54.4806C54.0185 25.8242 53.5848 25.5979 53.3203 25.2188L52.425 23.935H55.2008ZM38.526 20.2361V20.3665H35.3937V18.3355H36.6256C37.6734 18.3357 38.526 19.1883 38.526 20.2361ZM36.4901 15.239L37.1951 15.8117C37.0085 15.7878 36.8186 15.7741 36.6254 15.7741H34.7397C34.2021 15.7741 33.7168 15.9984 33.3696 16.3573H26.4296V12.9144H29.941C32.3188 12.9144 34.6446 13.7401 36.4901 15.239ZM14.7299 15.2701C16.5821 13.7512 18.9214 12.9146 21.317 12.9146H23.8679V16.3573H13.4042L14.7299 15.2701ZM2.68084 23.935H4.74363L4.37221 25.1884C4.26023 25.5654 3.90779 25.8289 3.51439 25.8289H2.68066V23.935H2.68084ZM5.66613 30.7452L3.06352 28.3908C4.72922 28.5384 6.35748 27.5521 6.82822 25.9166L7.49215 23.6767C7.85127 22.571 6.9351 21.3437 5.77301 21.3736H2.68084V19.81C2.68084 19.3187 3.08039 18.919 3.5717 18.919H32.8319V21.0208C32.8319 22.0726 33.6878 22.9284 34.7397 22.9284H39.1799C40.2318 22.9284 41.0875 22.0725 41.0875 21.0208V20.2363C41.0875 19.7924 41.0214 19.3639 40.9003 18.9589C41.5063 19.0065 42.1091 19.097 42.7011 19.2306C46.3243 20.0487 49.272 20.7919 51.2545 21.3817C50.561 21.4404 49.9445 21.8461 49.6185 22.471C49.2653 23.1479 49.3174 23.9574 49.754 24.5837L51.2191 26.6844C51.9623 27.75 53.1814 28.386 54.4804 28.386H55.4333V30.8005C55.4333 31.0013 55.27 31.1646 55.0693 31.1646H47.0769C46.8485 28.4883 44.5985 26.3796 41.8641 26.3796C39.1296 26.3796 36.8796 28.4881 36.6513 31.1646H19.3876C19.1593 28.4883 16.9093 26.3796 14.1748 26.3796C11.4404 26.3796 9.19055 28.4881 8.96221 31.1646H6.75879C6.35449 31.1646 5.96654 31.0155 5.66613 30.7452ZM16.8471 31.6128C16.8471 33.0859 15.6486 34.2843 14.1755 34.2843C12.7025 34.2843 11.5042 33.0859 11.5042 31.6128C11.5042 30.1398 12.7027 28.9413 14.1755 28.9413C15.6486 28.9413 16.8471 30.1398 16.8471 31.6128ZM18.9613 33.7262H37.0786C37.3511 34.3408 37.7381 34.8934 38.2131 35.3568H17.8267C18.3016 34.8934 18.6887 34.3408 18.9613 33.7262ZM65.0076 35.3568L64.9578 10.4175C64.9422 9.72806 65.5492 9.1195 66.2388 9.13374H67.9586V20.0877C67.9586 22.1124 69.6057 23.7594 71.6303 23.7594H87.3668C87.4128 24.0419 87.4385 24.3286 87.4385 24.6183V25.641H84.8039C82.5086 25.641 80.6412 27.5083 80.6412 29.8037C80.6412 32.099 82.5086 33.9664 84.8039 33.9664H87.4385V35.3566H65.0076V35.3568Z" fill="#EEB60A"/>
<path d="M72.5168 28.5229H69.303C68.5955 28.5229 68.0221 29.0963 68.0221 29.8039C68.0221 30.5114 68.5955 31.0848 69.303 31.0848H72.5168C73.2243 31.0848 73.7977 30.5114 73.7977 29.8039C73.7977 29.0963 73.2243 28.5229 72.5168 28.5229Z" fill="#EEB60A"/>
<path d="M37.912 40.8308C37.2045 40.8308 36.6311 41.4042 36.6311 42.1117C36.6311 42.8192 37.2045 43.3926 37.912 43.3926H43.0573C43.7648 43.3926 44.3382 42.8192 44.3382 42.1117C44.3382 41.4042 43.7648 40.8308 43.0573 40.8308H37.912Z" fill="#EEB60A"/>
<path d="M49.1509 40.8308C48.4434 40.8308 47.87 41.4042 47.87 42.1117C47.87 42.8192 48.4434 43.3926 49.1509 43.3926H54.2962C55.0037 43.3926 55.5771 42.8192 55.5771 42.1117C55.5771 41.4042 55.0037 40.8308 54.2962 40.8308H49.1509Z" fill="#EEB60A"/>
<path d="M25.1741 24.1971H27.6792C28.3867 24.1971 28.9601 23.6238 28.9601 22.9162C28.9601 22.2089 28.3867 21.6353 27.6792 21.6353H25.1741C24.4666 21.6353 23.8932 22.2087 23.8932 22.9162C23.8932 23.6238 24.4666 24.1971 25.1741 24.1971Z" fill="#EEB60A"/>
</svg>
