<svg width="58" height="58" viewBox="0 0 58 58" fill="none" xmlns="http://www.w3.org/2000/svg">
<path d="M49.59 8.33508C44.08 3.00875 36.83 0 29.1088 0C6.94792 0 -6.96725 24.0096 4.09867 43.1085L0 58L15.3096 54.0077C21.9796 57.6109 27.4437 57.2919 29.1233 57.5046C54.8197 57.5046 67.6111 26.4166 49.5537 8.42933L49.59 8.33508Z" fill="url(#paint0_linear_211_90)"/>
<path d="M29.1619 52.5649L29.1474 52.5625H29.1087C21.4189 52.5625 16.5058 48.9206 16.0225 48.7104L6.95996 51.0666L9.38871 42.2579L8.81113 41.3516C6.41863 37.5429 5.14746 33.1567 5.14746 28.6399C5.14746 7.39019 31.1145 -3.23589 46.1414 11.7837C61.132 26.6462 50.6074 52.5649 29.1619 52.5649Z" fill="#4CAF50"/>
<path d="M42.3085 34.5753L42.2868 34.7565C41.5594 34.394 38.0165 32.6613 37.3568 32.422C35.8754 31.8734 36.2935 32.335 33.449 35.5927C33.0261 36.0639 32.6056 36.1002 31.8879 35.7739C31.1629 35.4114 28.8356 34.6502 26.0806 32.1852C23.9346 30.2639 22.4943 27.9077 22.069 27.1827C21.3609 25.9598 22.8423 25.7858 24.1908 23.2338C24.4325 22.7263 24.3092 22.3276 24.1304 21.9675C23.9491 21.605 22.5064 18.0525 21.9022 16.6363C21.3222 15.225 20.7253 15.4038 20.2782 15.4038C18.8862 15.283 17.8688 15.3023 16.9722 16.2352C13.0717 20.5223 14.0553 24.9448 17.3927 29.6477C23.9515 38.2317 27.446 39.8122 33.8357 42.0065C35.5612 42.5551 37.1345 42.4778 38.379 42.2989C39.7662 42.079 42.6493 40.5565 43.251 38.8528C43.8673 37.149 43.8673 35.7353 43.686 35.409C43.5072 35.0828 43.0335 34.9015 42.3085 34.5753V34.5753Z" fill="#FAFAFA"/>
<defs>
<linearGradient id="paint0_linear_211_90" x1="29.0004" y1="0" x2="29.0004" y2="58" gradientUnits="userSpaceOnUse">
<stop stop-color="#ECEFF1"/>
<stop offset="1" stop-color="white"/>
</linearGradient>
</defs>
</svg>
