<svg width="30" height="22" viewBox="0 0 30 22" fill="none" xmlns="http://www.w3.org/2000/svg">
<path d="M30 4.16314C30 1.99532 28.2437 0.239014 26.0752 0.239014H3.92413C1.75696 0.239014 0 1.99532 0 4.16314V17.8373C0 20.0044 1.75696 21.7608 3.92413 21.7608H26.0765C28.243 21.7608 30 20.0044 30 17.836V4.16314ZM27.3437 5.51967L18.9137 14.6847C17.8683 15.811 16.3891 16.5434 14.852 16.5434C14.8422 16.5434 14.8337 16.5434 14.8233 16.5434C13.2763 16.5434 11.7926 15.7875 10.7524 14.6423L2.3237 5.32988C1.72304 4.66793 1.77065 3.6238 2.43261 3.02249C3.09457 2.42119 4.11717 2.45771 4.71783 3.11771L13.1465 12.3831C13.5796 12.8592 14.1972 13.1305 14.8402 13.1344C15.4852 13.1547 16.1041 12.8684 16.5411 12.3955L24.9724 3.31858C25.5815 2.6651 26.6041 2.62532 27.2589 3.23314C27.9137 3.84097 27.9515 4.86554 27.3437 5.51967Z" fill="url(#paint0_linear_53_113)"/>
<defs>
<linearGradient id="paint0_linear_53_113" x1="0.000732573" y1="0.238846" x2="20.3882" y2="28.6561" gradientUnits="userSpaceOnUse">
<stop stop-color="#F5DC8D"/>
<stop offset="1" stop-color="#EEB60A"/>
</linearGradient>
</defs>
</svg>
