<svg width="30" height="30" viewBox="0 0 30 30" fill="none" xmlns="http://www.w3.org/2000/svg">
<path fill-rule="evenodd" clip-rule="evenodd" d="M29.4514 26.3881C29.2522 26.5867 29.012 26.8406 28.7573 27.1092C28.1217 27.7838 27.3276 28.6224 26.8299 28.9625C24.2113 30.7518 20.7081 29.8957 18.2302 28.8632C14.9613 27.5012 11.4023 24.9907 8.20681 21.7947C5.0083 18.5985 2.49802 15.0385 1.13601 11.7715C0.104762 9.29298 -0.753226 5.78907 1.0364 3.16993C1.37625 2.67188 2.21677 1.87905 2.89049 1.2422C3.16002 0.988252 3.41197 0.74831 3.61119 0.549736C3.96487 0.197808 4.44352 0.000244141 4.94247 0.000244141C5.44141 0.000244141 5.92006 0.197808 6.27375 0.549736L11.0918 5.36638C11.4435 5.72005 11.641 6.19856 11.641 6.69736C11.641 7.19616 11.4435 7.67468 11.0918 8.02835L9.77929 9.33821C9.34097 9.77334 9.05485 10.3384 8.96354 10.9492C8.87223 11.56 8.9806 12.184 9.27252 12.7283C11.0778 16.1356 13.8648 18.9221 17.2723 20.7268C17.8165 21.0186 18.4404 21.1268 19.051 21.0354C19.6617 20.9439 20.2265 20.6576 20.6613 20.2192L21.9705 18.9093C22.3242 18.5573 22.8029 18.3598 23.3018 18.3598C23.8008 18.3598 24.2794 18.5573 24.6331 18.9093L29.4514 23.7267C29.8032 24.0803 30.0006 24.5587 30.0006 25.0574C30.0006 25.5561 29.8032 26.0346 29.4514 26.3881Z" fill="url(#paint0_linear_53_109)"/>
<defs>
<linearGradient id="paint0_linear_53_109" x1="1.84702e-07" y1="1.10996e-05" x2="30" y2="30" gradientUnits="userSpaceOnUse">
<stop stop-color="#F5DC8D"/>
<stop offset="1" stop-color="#EEB60A"/>
</linearGradient>
</defs>
</svg>
