<svg width="25" height="31" viewBox="0 0 25 31" fill="none" xmlns="http://www.w3.org/2000/svg">
<path fill-rule="evenodd" clip-rule="evenodd" d="M23.3501 0C23.7686 0 24.1561 0.1705 24.4506 0.4495C24.7296 0.744 24.9001 1.1315 24.9001 1.55V17.05C24.9001 17.4685 24.7296 17.856 24.4506 18.1505C24.1561 18.4295 23.7686 18.6 23.3501 18.6H1.6501C1.2316 18.6 0.844098 18.4295 0.549598 18.1505C0.270598 17.856 0.100098 17.4685 0.100098 17.05V1.55C0.100098 1.1315 0.270598 0.744 0.549598 0.4495C0.844098 0.1705 1.2316 0 1.6501 0L23.3501 0ZM18.0646 8.01035L21.8001 10.85V3.1H3.2001V10.85L5.4941 9.46735C5.9901 9.21935 6.5791 9.25035 7.0441 9.56035L10.9501 12.4L16.2821 8.05685C16.7936 7.66935 17.5221 7.63835 18.0646 8.01035Z" fill="url(#paint0_linear_53_372)"/>
<path d="M0.549598 22.1495C0.844098 21.8705 1.2316 21.7 1.6501 21.7C2.0686 21.7 2.4561 21.8705 2.7506 22.1495C3.0296 22.444 3.2001 22.8315 3.2001 23.25V29.45C3.2001 29.8685 3.0296 30.256 2.7506 30.5505C2.4561 30.8295 2.0686 31 1.6501 31C1.2316 31 0.844098 30.8295 0.549598 30.5505C0.270598 30.256 0.100098 29.8685 0.100098 29.45V23.25C0.100098 22.8315 0.270598 22.444 0.549598 22.1495Z" fill="url(#paint1_linear_53_372)"/>
<path d="M10.95 24.8C11.3685 24.8 11.756 24.6295 12.0505 24.3505C12.3295 24.056 12.5 23.6685 12.5 23.25C12.5 22.8315 12.3295 22.444 12.0505 22.1495C11.756 21.8705 11.3685 21.7 10.95 21.7C8.39255 21.7 6.30005 23.7925 6.30005 26.35C6.30005 28.9075 8.39255 31 10.95 31C11.3685 31 11.756 30.8295 12.0505 30.5505C12.3295 30.256 12.5 29.8685 12.5 29.45C12.5 29.0315 12.3295 28.644 12.0505 28.3495C11.756 28.0705 11.3685 27.9 10.95 27.9C10.547 27.8845 10.175 27.714 9.89605 27.4195C9.61705 27.1405 9.46205 26.753 9.46205 26.35C9.46205 25.947 9.61705 25.5595 9.89605 25.2805C10.175 24.986 10.547 24.8155 10.95 24.8Z" fill="url(#paint2_linear_53_372)"/>
<path fill-rule="evenodd" clip-rule="evenodd" d="M20.2501 21.7C17.6926 21.7 15.6001 23.7925 15.6001 26.35C15.6001 28.9075 17.6926 31 20.2501 31C22.8076 31 24.9001 28.9075 24.9001 26.35C24.9001 23.7925 22.8076 21.7 20.2501 21.7ZM21.3041 27.4195C21.0251 27.714 20.6531 27.8845 20.2501 27.9C19.8471 27.8845 19.4751 27.714 19.1961 27.4195C18.9171 27.1405 18.7621 26.753 18.7621 26.35C18.7621 25.947 18.9171 25.5595 19.1961 25.2805C19.4751 24.986 19.8471 24.8155 20.2501 24.8C20.6531 24.8155 21.0251 24.986 21.3041 25.2805C21.5831 25.5595 21.7381 25.947 21.7381 26.35C21.7381 26.753 21.5831 27.1405 21.3041 27.4195Z" fill="url(#paint3_linear_53_372)"/>
<defs>
<linearGradient id="paint0_linear_53_372" x1="0.100703" y1="-0.000144487" x2="17.9571" y2="23.8071" gradientUnits="userSpaceOnUse">
<stop stop-color="#F5DC8D"/>
<stop offset="1" stop-color="#EEB60A"/>
</linearGradient>
<linearGradient id="paint1_linear_53_372" x1="0.100173" y1="21.6999" x2="5.67998" y2="23.5598" gradientUnits="userSpaceOnUse">
<stop stop-color="#F5DC8D"/>
<stop offset="1" stop-color="#EEB60A"/>
</linearGradient>
<linearGradient id="paint2_linear_53_372" x1="6.3002" y1="21.6999" x2="14.8847" y2="27.4226" gradientUnits="userSpaceOnUse">
<stop stop-color="#F5DC8D"/>
<stop offset="1" stop-color="#EEB60A"/>
</linearGradient>
<linearGradient id="paint3_linear_53_372" x1="15.6003" y1="21.6999" x2="24.9004" y2="30.9995" gradientUnits="userSpaceOnUse">
<stop stop-color="#F5DC8D"/>
<stop offset="1" stop-color="#EEB60A"/>
</linearGradient>
</defs>
</svg>
