<svg width="18" height="18" viewBox="0 0 18 18" fill="none" xmlns="http://www.w3.org/2000/svg">
<path d="M8.78757 11.1575C8.7857 11.1575 8.78382 11.1575 8.78195 11.1575C8.43695 11.1544 8.15945 10.8722 8.16257 10.5269L8.16538 10.2144C8.16538 10.1966 8.16632 10.1784 8.1682 10.1606C8.25476 9.25156 8.8582 8.69437 9.34351 8.24656C9.50788 8.09469 9.66351 7.95125 9.79601 7.80156C9.95757 7.61937 10.1919 7.24625 9.94538 6.79594C9.66132 6.27594 8.96757 6.12875 8.42851 6.25219C7.86538 6.38094 7.65788 6.86187 7.58413 7.13687C7.49476 7.47031 7.15195 7.66812 6.81851 7.57906C6.48507 7.48969 6.28726 7.14687 6.37632 6.81344C6.62538 5.88312 7.27163 5.23469 8.14913 5.03375C9.33007 4.76406 10.5194 5.24125 11.0416 6.19594C11.4763 6.99094 11.3573 7.92375 10.7307 8.63062C10.5566 8.82687 10.3707 8.99875 10.1907 9.16469C9.74226 9.57875 9.46195 9.85562 9.41445 10.2553L9.41195 10.5375C9.40945 10.8816 9.13007 11.1575 8.78757 11.1575Z" fill="#DCDCDC"/>
<path d="M8.7876 13.0313C8.6251 13.0313 8.4626 12.9656 8.34697 12.85C8.22822 12.7344 8.1626 12.5719 8.1626 12.4063C8.1626 12.2438 8.22822 12.0813 8.34697 11.9656C8.57822 11.7344 8.99697 11.7344 9.22822 11.9656C9.34697 12.0813 9.4126 12.2438 9.4126 12.4063C9.4126 12.5719 9.34697 12.7313 9.23135 12.85C9.1126 12.9656 8.95322 13.0313 8.7876 13.0313Z" fill="#DCDCDC"/>
<path d="M8.97582 17.1241C8.26488 17.1241 7.56019 17.0316 6.88113 16.8487C3.95488 16.0616 1.66363 13.6375 1.04394 10.6728C0.41238 7.6525 1.57801 4.4775 4.01394 2.58406C5.42207 1.48937 7.19801 0.886246 9.01488 0.886246C10.2727 0.886246 11.5218 1.17875 12.6274 1.73156C15.3577 3.0975 17.1218 5.95125 17.1218 9.00218C17.1218 11.4916 15.9471 13.8909 13.9796 15.4203C12.5664 16.5191 10.7893 17.1241 8.97582 17.1241ZM9.01519 2.13625C7.47488 2.13625 5.97113 2.64562 4.78144 3.57093C2.71988 5.17343 1.73301 7.86062 2.26769 10.4169C2.79207 12.9247 4.73051 14.9756 7.20613 15.6416C7.77925 15.7956 8.37488 15.8741 8.97582 15.8741H8.97613C10.513 15.8741 12.0174 15.3625 13.2127 14.4334C14.878 13.1391 15.8721 11.1087 15.8721 9.00218C15.8721 6.42062 14.3793 4.00562 12.0686 2.84968C11.1355 2.38312 10.0799 2.13625 9.01519 2.13625Z" fill="#DCDCDC"/>
</svg>
