<svg width="24" height="24" viewBox="0 0 24 24" fill="none" xmlns="http://www.w3.org/2000/svg">
<g filter="url(#filter0_d_53_381)">
<circle cx="11" cy="11" r="8" fill="url(#paint0_linear_53_381)"/>
<circle cx="11" cy="11" r="7.5" stroke="url(#paint1_linear_53_381)"/>
</g>
<path d="M10.6464 13.3536C10.8417 13.5488 11.1583 13.5488 11.3536 13.3536L14.5355 10.1716C14.7308 9.97631 14.7308 9.65973 14.5355 9.46447C14.3403 9.2692 14.0237 9.2692 13.8284 9.46447L11 12.2929L8.17157 9.46447C7.97631 9.2692 7.65973 9.2692 7.46447 9.46447C7.2692 9.65973 7.2692 9.97631 7.46447 10.1716L10.6464 13.3536ZM10.5 12V13H11.5V12H10.5Z" fill="#7E7E7E"/>
<defs>
<filter id="filter0_d_53_381" x="0" y="0" width="24" height="24" filterUnits="userSpaceOnUse" color-interpolation-filters="sRGB">
<feFlood flood-opacity="0" result="BackgroundImageFix"/>
<feColorMatrix in="SourceAlpha" type="matrix" values="0 0 0 0 0 0 0 0 0 0 0 0 0 0 0 0 0 0 127 0" result="hardAlpha"/>
<feOffset dx="1" dy="1"/>
<feGaussianBlur stdDeviation="2"/>
<feComposite in2="hardAlpha" operator="out"/>
<feColorMatrix type="matrix" values="0 0 0 0 0 0 0 0 0 0 0 0 0 0 0 0 0 0 0.1 0"/>
<feBlend mode="normal" in2="BackgroundImageFix" result="effect1_dropShadow_53_381"/>
<feBlend mode="normal" in="SourceGraphic" in2="effect1_dropShadow_53_381" result="shape"/>
</filter>
<linearGradient id="paint0_linear_53_381" x1="3" y1="3" x2="19" y2="19" gradientUnits="userSpaceOnUse">
<stop stop-color="white"/>
<stop offset="1" stop-color="#DDDDDD"/>
</linearGradient>
<linearGradient id="paint1_linear_53_381" x1="3" y1="3" x2="19" y2="19" gradientUnits="userSpaceOnUse">
<stop stop-color="#D9D9D9"/>
<stop offset="1" stop-color="white"/>
</linearGradient>
</defs>
</svg>
