<svg width="20" height="20" viewBox="0 0 20 20" fill="none" xmlns="http://www.w3.org/2000/svg">
<path d="M6.44962 7.23254C6.94138 7.23254 7.40376 7.04102 7.75146 6.6932L8.15872 6.28594L8.1588 13.1379C8.1588 14.1531 8.9847 14.9791 9.99989 14.9791C11.0151 14.9791 11.8411 14.1531 11.8411 13.1379V6.28613L12.2482 6.6932C12.596 7.04106 13.0584 7.23262 13.5503 7.23262C14.042 7.23262 14.5043 7.04113 14.852 6.6934C15.5699 5.97555 15.5699 4.80746 14.8521 4.08961L11.303 0.540469C10.9551 0.191914 10.4923 0 9.99993 0C9.50829 0 9.04595 0.191445 8.69798 0.539219L5.14767 4.08953C4.42994 4.80738 4.42994 5.97539 5.14771 6.69324C5.49552 7.04102 5.95787 7.23254 6.44962 7.23254Z" fill="url(#paint0_linear_62_2184)"/>
<path d="M18.1589 12.552C17.1436 12.552 16.3177 13.378 16.3177 14.3932V16.3177H3.6823V14.3932C3.6823 13.378 2.85637 12.552 1.84117 12.552C0.825976 12.552 0 13.378 0 14.3932V18.1588C0 19.174 0.825976 20 1.84117 20H18.1589C19.1741 20 20 19.174 20 18.1588V14.3932C20 13.378 19.1741 12.552 18.1589 12.552Z" fill="url(#paint1_linear_62_2184)"/>
<defs>
<linearGradient id="paint0_linear_62_2184" x1="4.60964" y1="-0.000116359" x2="18.8136" y2="10.2225" gradientUnits="userSpaceOnUse">
<stop stop-color="#F5DC8D"/>
<stop offset="1" stop-color="#EEB60A"/>
</linearGradient>
<linearGradient id="paint1_linear_62_2184" x1="0.000488382" y1="12.552" x2="4.87235" y2="25.6337" gradientUnits="userSpaceOnUse">
<stop stop-color="#F5DC8D"/>
<stop offset="1" stop-color="#EEB60A"/>
</linearGradient>
</defs>
</svg>
