<svg width="31" height="31" viewBox="0 0 31 31" fill="none" xmlns="http://www.w3.org/2000/svg">
<path d="M9.99692 11.2104C10.7591 11.2104 11.4758 10.9136 12.0148 10.3745L12.646 9.7432L12.6461 20.3638C12.6461 21.9373 13.9263 23.2176 15.4998 23.2176C17.0735 23.2176 18.3537 21.9373 18.3537 20.3638V9.74351L18.9847 10.3745C19.5238 10.9136 20.2405 11.2106 21.0029 11.2106C21.7651 11.2106 22.4817 10.9138 23.0207 10.3748C24.1334 9.2621 24.1334 7.45156 23.0207 6.33889L17.5196 0.837727C16.9805 0.297467 16.2631 0 15.4999 0C14.7379 0 14.0212 0.29674 13.4819 0.835789L7.97889 6.33877C6.8664 7.45144 6.8664 9.26186 7.97895 10.3745C8.51806 10.9136 9.23469 11.2104 9.99692 11.2104Z" fill="url(#paint0_linear_53_344)"/>
<path d="M28.1462 19.4556C26.5726 19.4556 25.2924 20.7359 25.2924 22.3095V25.2924H5.70757V22.3095C5.70757 20.7359 4.42737 19.4556 2.85382 19.4556C1.28026 19.4556 0 20.7359 0 22.3095V28.1462C0 29.7197 1.28026 31 2.85382 31H28.1462C29.7198 31 31 29.7197 31 28.1462V22.3095C31 20.7359 29.7198 19.4556 28.1462 19.4556Z" fill="url(#paint1_linear_53_344)"/>
<defs>
<linearGradient id="paint0_linear_53_344" x1="7.14494" y1="-0.000180357" x2="29.161" y2="15.8449" gradientUnits="userSpaceOnUse">
<stop stop-color="#F5DC8D"/>
<stop offset="1" stop-color="#EEB60A"/>
</linearGradient>
<linearGradient id="paint1_linear_53_344" x1="0.000756992" y1="19.4556" x2="7.55215" y2="39.7322" gradientUnits="userSpaceOnUse">
<stop stop-color="#F5DC8D"/>
<stop offset="1" stop-color="#EEB60A"/>
</linearGradient>
</defs>
</svg>
